<svg viewBox="0 0 433 390" xmlns="http://www.w3.org/2000/svg"><path d="m241.06 131.2c-3.08.84-5.74 1.45-8.31 2.29-32.38 10.61-62.06 26.78-90 45.86-25.42 17.35-49.78 36.25-74.6 54.49-1.7 1.25-3.3 2.64-5.73 4.58 0-9.36-.43-17.8.09-26.18 1.12-18.25 3.17-36.37 7.82-54.15 11.69-44.65 38.89-76.41 79.71-97.21 29.61-15.08 60.88-24.58 93.65-29.65 28.16-4.36 56.49-6.2 84.93-7.03 31.87-.93 63.31-4.45 93.42-15.82 2.29-.87 4.61-1.65 7.78-2.79-1.83 9.34-3.45 17.9-5.19 26.44-7.19 35.36-15.72 70.35-28.79 104.08-13.88 35.85-31.83 69.29-58.58 97.36-30.75 32.26-68.57 51.53-112.05 60.22-20.99 4.2-42.26 6.29-63.51 4.64-19.64-1.53-39.14-5.06-58.64-8.16-4-.64-6.36-.5-8.56 3.25-15.8 27-31.87 53.83-47.63 80.85-4.39 7.52-9.88 12.85-18.95 13.58-9.54.77-17.11-2.7-21.85-11.02-4.77-8.39-4.48-17.09 1.23-24.93 12.16-16.69 24.21-33.49 37.11-49.6 34.46-43.07 72.78-82.37 116.05-116.7 24.05-19.08 49.4-36.24 76.48-50.77 1.17-.63 2.32-1.3 3.44-2.01.22-.14.25-.57.68-1.63z" fill="#41a73c"/></svg>